<svg width="198" height="64" viewBox="0 0 198 64" fill="none" xmlns="http://www.w3.org/2000/svg">
<path d="M2.23785 58.5537C2.44732 58.6634 2.66702 58.8162 2.87648 58.926C4.97111 60.0232 7.12288 60.4919 9.24785 60.9441C14.4095 62.0194 19.5479 62.4169 24.6722 62.6583C26.8289 62.7614 29.0073 62.8593 31.1601 62.8494C31.3581 63.0074 31.5432 62.9179 31.7476 63.0061C31.3084 63.0875 30.8589 63.1259 30.4146 63.1858C30.301 63.19 30.1707 63.2209 30.2053 63.4632C30.2514 63.6573 30.3587 63.723 30.5004 63.6438C30.7277 63.6354 30.9601 63.6485 31.209 63.635C36.0995 63.5675 41.0016 63.8389 45.8869 63.7498C49.3332 63.6834 52.7987 63.7947 56.2257 63.5507C60.221 63.2856 64.2457 63.2414 68.2153 62.8686C70.5928 62.6459 72.9895 62.6009 75.3682 62.2868C78.2346 61.9026 81.0742 61.5019 83.956 61.1823C88.4951 60.6971 93.1353 60.7345 97.7255 60.4649C101.866 60.2337 105.98 59.986 110.112 59.6203C113.887 59.2938 117.624 58.9078 121.352 58.3873C124.37 57.9669 127.394 57.5682 130.403 57.0133C130.517 57.0091 130.641 57.048 130.749 57.0223C130.836 57.0017 130.923 56.981 130.993 56.9872C131.416 56.9324 131.833 56.8561 132.246 56.7582C134.35 56.3499 136.459 55.9631 138.563 55.5548L138.585 55.5496C139.54 55.3229 140.495 55.0962 141.45 54.8696C141.418 54.8316 141.369 54.8203 141.342 54.8039C141.17 54.7537 141.007 54.8381 140.841 54.718C140.363 54.8314 139.828 54.7989 139.371 54.9985C139.279 54.9976 139.209 54.9915 139.122 55.0121C135.08 55.5616 130.976 55.8524 126.899 56.1595C121.268 56.585 115.623 56.8544 109.968 57.0807C108.063 57.1684 106.148 57.2131 104.237 57.2793C104.512 56.9864 104.869 56.9471 105.217 56.8646C108.331 56.171 111.439 55.4559 114.518 54.6114C120.722 52.9335 126.824 50.9159 132.904 48.812C138.241 46.9531 143.547 44.9648 148.779 42.7661C155.112 40.0787 161.359 37.2291 167.53 34.056C174.251 30.5929 180.804 26.8054 186.943 21.9544C189.682 19.7781 192.374 17.4992 194.749 14.6578C196.035 13.1225 196.878 11.1685 197.251 8.77948C197.447 7.4802 197.08 6.22348 196.194 5.38616C195.809 5.02189 195.398 4.64121 194.974 4.4002C190.8 1.88329 186.561 0.930511 182.314 0.617537C182.239 0.589868 182.142 0.567351 182.066 0.539681C178.565 0.277471 175.102 0.370561 171.689 0.770677C166.96 1.32382 162.292 2.13571 157.67 3.14166C151.784 4.42485 145.897 5.79945 140.022 7.12578C139.829 6.98934 139.692 7.09009 139.54 7.12615C138.124 7.43947 136.73 7.74762 135.314 8.06093C135.097 8.11245 134.879 8.25537 134.616 8.11283C121.506 11.2246 108.397 14.3363 95.2872 17.448C95.1928 17.6299 95.0256 17.6013 94.8953 17.6322C93.4897 17.9886 92.1057 18.3399 90.7051 18.7179C90.5315 18.7591 90.3374 18.7141 90.2098 18.9494C84.1901 20.5377 78.1538 22.1527 72.1699 23.8919C66.2728 25.6106 60.3335 27.2481 54.4518 29.0315C47.7772 31.0485 41.1295 33.082 34.501 35.2932C33.4796 35.6267 32.4788 36.0465 31.4676 36.4231L31.4945 36.4396C31.4893 36.418 31.4893 36.418 31.4842 36.3964C31.3923 36.3955 31.3221 36.3894 31.2404 36.4315C28.9296 37.3217 26.5984 38.1256 24.3299 39.0968C19.9179 40.9868 15.4957 42.8337 11.2448 45.2093C8.61261 46.6769 6.02768 48.2471 3.60001 50.19C2.96564 50.705 2.29934 51.182 1.85027 51.9947C1.29004 52.6288 1.01214 53.5831 0.82619 54.5383C0.42092 56.115 0.744784 57.7692 2.23785 58.5537ZM54.0265 62.5922C53.8733 62.7196 53.6204 62.6202 53.4724 62.7692C52.9015 62.5859 52.405 62.9087 51.8534 62.903C49.343 62.9522 46.8429 63.0445 44.3594 63.1102C44.0402 63.1176 43.7081 62.8775 43.4081 63.0626C43.4145 62.9928 43.4477 62.9394 43.486 62.9075C43.5625 62.8438 43.6864 62.8827 43.7579 62.7974C43.6659 62.7965 43.5523 62.8006 43.4604 62.7997C43.542 62.7575 43.6659 62.7965 43.7579 62.7974C46.0524 62.7083 48.3303 62.6459 50.6197 62.5353C51.6859 62.4872 52.7725 62.5254 53.808 62.3479C53.8948 62.3273 54.0021 62.393 54.0992 62.4155C54.0979 62.5069 54.0648 62.5603 54.0265 62.5922ZM38.0222 62.9744C38.0707 62.9857 38.1141 62.9754 38.1626 62.9867C38.0924 62.9805 38.0439 62.9693 38.0222 62.9744ZM193.02 10.0799C192.525 11.0857 191.77 11.7661 191.174 12.6364C191.042 12.7587 190.906 12.8595 190.774 12.9818C189.556 14.3188 188.278 15.6015 186.938 16.7168C182.037 20.7957 176.904 24.3828 171.552 27.4299C165.959 30.6251 160.209 33.4476 154.397 36.1028C151.045 37.6274 147.677 39.0873 144.289 40.461C140.689 41.9077 137.073 43.2898 133.453 44.6503C129.582 46.1157 125.648 47.4138 121.732 48.6852C117.499 50.077 113.225 51.3877 108.91 52.5259C102.054 54.3582 95.1198 55.9586 88.187 57.4675C87.7529 57.5705 87.3137 57.652 86.8592 57.6688C84.5212 57.7682 82.1565 57.8512 79.8237 57.9721C75.499 58.2014 71.1665 58.2048 66.8316 58.3911C65.5164 58.4527 64.1756 58.4065 62.8695 58.6026C61.7765 58.6343 60.6784 58.6444 59.6071 58.6709C57.1989 58.7642 54.7908 58.8575 52.3609 58.9559C49.2709 59.0744 46.1592 59.198 43.0526 59.3432C40.4006 59.4716 37.7447 59.4871 35.0887 59.5025C28.8141 59.5341 22.4986 59.3932 16.1458 58.8057C13.002 58.5042 9.85813 58.2026 6.68974 57.3147C6.05377 57.1468 5.43561 56.8608 4.84163 56.3868C4.2157 55.8748 4.11458 55.3522 4.59823 54.7818C5.56043 53.6196 6.70669 52.8464 7.86442 52.0249C11.4742 49.4598 15.3346 47.5641 19.2691 45.7874C26.9963 42.3133 34.9308 39.5188 42.9279 36.8917C53.4401 33.4626 64.0815 30.4812 74.6858 27.4402C93.5325 22.0328 112.563 17.4016 131.646 12.9861C141.298 10.7633 150.977 8.55699 160.644 6.39893C165.391 5.3405 170.206 4.47099 175.064 3.97834C179.181 3.54789 183.368 3.51071 187.619 4.32382C189.135 4.62456 190.625 5.20466 192.056 6.20894C193.642 7.29012 193.893 8.34668 193.02 10.0799Z" fill="#E7D551"/>
</svg>
