<?xml version="1.0" encoding="UTF-8"?>
<svg preserveAspectRatio="xMidYMid slice" xmlns="http://www.w3.org/2000/svg" width="30px" height="30px" viewBox="0 0 80 80" fill="none">
  <path d="M65 13.125H15C13.8397 13.125 12.7269 13.5859 11.9064 14.4064C11.0859 15.2269 10.625 16.3397 10.625 17.5V35.8656C10.625 63.4406 33.9625 72.5906 38.6406 74.1437C39.522 74.4438 40.478 74.4438 41.3594 74.1437C46.0469 72.5812 69.375 63.4406 69.375 35.8656V17.5C69.375 16.3397 68.9141 15.2269 68.0936 14.4064C67.2731 13.5859 66.1603 13.125 65 13.125ZM65.625 35.8719C65.625 60.8719 44.425 69.1813 40.175 70.5906C40.0624 70.6342 39.9376 70.6342 39.825 70.5906C35.575 69.1813 14.375 60.8719 14.375 35.8719V17.5C14.375 17.3342 14.4408 17.1753 14.5581 17.0581C14.6753 16.9408 14.8342 16.875 15 16.875H65C65.1658 16.875 65.3247 16.9408 65.4419 17.0581C65.5592 17.1753 65.625 17.3342 65.625 17.5V35.8719Z" fill="#616161"></path>
</svg>
