<?xml version="1.0" encoding="UTF-8"?>
<svg preserveAspectRatio="xMidYMid slice" xmlns="http://www.w3.org/2000/svg" width="30px" height="30px" viewBox="0 0 80 80" fill="none">
  <path d="M55 50.625C53.3301 50.6244 51.6789 50.9768 50.1548 51.6592C48.6307 52.3416 47.268 53.3384 46.1562 54.5844L30.875 44.7625C31.5345 43.2614 31.875 41.6396 31.875 40C31.875 38.3604 31.5345 36.7387 30.875 35.2375L46.1562 25.4156C48.1499 27.6394 50.9083 29.0304 53.8816 29.3112C56.855 29.592 59.825 28.7421 62.1998 26.9309C64.5745 25.1197 66.1795 22.4801 66.695 19.5383C67.2105 16.5965 66.5985 13.5685 64.9811 11.0578C63.3637 8.54706 60.8596 6.73798 57.9678 5.9911C55.0761 5.24422 52.0092 5.6144 49.3782 7.02786C46.7472 8.44132 44.7455 10.7943 43.7719 13.6177C42.7983 16.4412 42.9244 19.5279 44.125 22.2625L28.8437 32.0844C27.2405 30.2915 25.1307 29.0278 22.7935 28.4603C20.4563 27.8928 18.0019 28.0484 15.7551 28.9065C13.5083 29.7645 11.5749 31.2846 10.211 33.2656C8.847 35.2465 8.1167 37.5949 8.1167 40C8.1167 42.4051 8.847 44.7535 10.211 46.7345C11.5749 48.7154 13.5083 50.2355 15.7551 51.0936C18.0019 51.9516 20.4563 52.1072 22.7935 51.5397C25.1307 50.9723 27.2405 49.7085 28.8437 47.9156L44.125 57.7375C43.0991 60.0807 42.8573 62.6924 43.4355 65.1841C44.0136 67.6758 45.3809 69.9142 47.3337 71.5662C49.2866 73.2182 51.7206 74.1955 54.2737 74.3526C56.8267 74.5097 59.3623 73.8383 61.503 72.4382C63.6437 71.0382 65.2751 68.9843 66.1544 66.5823C67.0337 64.1804 67.114 61.5587 66.3832 59.1074C65.6524 56.6561 64.1497 54.5063 62.0986 52.978C60.0476 51.4496 57.5579 50.6243 55 50.625ZM55 9.37502C56.607 9.37502 58.1778 9.85154 59.514 10.7443C60.8501 11.6371 61.8915 12.9061 62.5065 14.3907C63.1215 15.8754 63.2824 17.509 62.9689 19.0851C62.6554 20.6612 61.8815 22.109 60.7452 23.2453C59.6089 24.3816 58.1612 25.1554 56.5851 25.4689C55.009 25.7824 53.3753 25.6215 51.8907 25.0065C50.406 24.3916 49.1371 23.3502 48.2443 22.014C47.3515 20.6779 46.875 19.107 46.875 17.5C46.875 15.3451 47.731 13.2785 49.2547 11.7548C50.7785 10.231 52.8451 9.37502 55 9.37502ZM20 48.125C18.393 48.125 16.8221 47.6485 15.486 46.7557C14.1498 45.8629 13.1084 44.594 12.4935 43.1093C11.8785 41.6247 11.7176 39.991 12.0311 38.4149C12.3446 36.8388 13.1184 35.3911 14.2547 34.2548C15.391 33.1185 16.8388 32.3446 18.4149 32.0311C19.991 31.7176 21.6246 31.8785 23.1093 32.4935C24.5939 33.1085 25.8629 34.1499 26.7557 35.486C27.6485 36.8222 28.125 38.393 28.125 40C28.125 42.1549 27.269 44.2215 25.7452 45.7453C24.2215 47.269 22.1549 48.125 20 48.125ZM55 70.625C53.393 70.625 51.8221 70.1485 50.486 69.2557C49.1498 68.3629 48.1084 67.094 47.4935 65.6093C46.8785 64.1247 46.7176 62.491 47.0311 60.9149C47.3446 59.3388 48.1184 57.8911 49.2547 56.7548C50.391 55.6185 51.8388 54.8446 53.4149 54.5311C54.991 54.2176 56.6246 54.3785 58.1093 54.9935C59.5939 55.6085 60.8629 56.6499 61.7557 57.986C62.6485 59.3222 63.125 60.893 63.125 62.5C63.125 63.567 62.9148 64.6236 62.5065 65.6093C62.0982 66.5951 61.4997 67.4908 60.7452 68.2453C59.9908 68.9997 59.0951 69.5982 58.1093 70.0065C57.1235 70.4149 56.067 70.625 55 70.625Z" fill="#616161"></path>
</svg>
