<svg width="80" height="80" viewBox="0 0 80 80" fill="none" xmlns="http://www.w3.org/2000/svg">
<path d="M78.3844 23.3469C78.0851 23.1868 77.7479 23.111 77.4089 23.1275C77.0699 23.144 76.7417 23.2522 76.4594 23.4406L64.375 31.4969V22.5C64.375 21.3397 63.9141 20.2269 63.0936 19.4064C62.2731 18.5859 61.1603 18.125 60 18.125H10C8.83968 18.125 7.72688 18.5859 6.90641 19.4064C6.08594 20.2269 5.625 21.3397 5.625 22.5V57.5C5.625 58.6603 6.08594 59.7731 6.90641 60.5936C7.72688 61.4141 8.83968 61.875 10 61.875H60C61.1603 61.875 62.2731 61.4141 63.0936 60.5936C63.9141 59.7731 64.375 58.6603 64.375 57.5V48.5031L76.4594 56.5625C76.7419 56.751 77.0704 56.8592 77.4097 56.8756C77.7489 56.892 78.0863 56.8159 78.3857 56.6554C78.6851 56.495 78.9352 56.2562 79.1095 55.9647C79.2837 55.6731 79.3755 55.3397 79.375 55V25C79.375 24.6606 79.2828 24.3276 79.1083 24.0364C78.9339 23.7453 78.6837 23.507 78.3844 23.3469ZM60.625 57.5C60.625 57.6658 60.5592 57.8247 60.4419 57.9419C60.3247 58.0592 60.1658 58.125 60 58.125H10C9.83424 58.125 9.67527 58.0592 9.55806 57.9419C9.44085 57.8247 9.375 57.6658 9.375 57.5V22.5C9.375 22.3342 9.44085 22.1753 9.55806 22.0581C9.67527 21.9408 9.83424 21.875 10 21.875H60C60.1658 21.875 60.3247 21.9408 60.4419 22.0581C60.5592 22.1753 60.625 22.3342 60.625 22.5V57.5ZM75.625 51.4969L64.375 43.9969V36.0031L75.625 28.5031V51.4969Z" fill="#616161"/>
</svg>
