<?xml version="1.0" encoding="UTF-8"?>
<svg xmlns="http://www.w3.org/2000/svg" width="223" height="46" viewBox="0 0 223 46" fill="none">
  <path d="M45 22.5C45 34.9262 34.9262 45 22.5 45C10.0738 45 0 34.9262 0 22.5C0 10.0738 10.0738 0 22.5 0C34.9262 0 45 10.0738 45 22.5Z" fill="#77D1F6"></path>
  <path d="M21.3559 19.117C21.1562 19.2683 21.0245 19.387 20.8757 19.4797C20.4334 19.7563 19.9885 20.0263 19.5397 20.2925C17.5239 21.485 15.4037 22.4088 13.0682 22.7611C12.8817 22.7898 12.6286 22.731 12.4824 22.6149C11.7622 22.0461 11.0655 21.4485 10.3662 20.8548C9.70597 20.2938 9.22975 19.5919 8.86573 18.8156C8.61913 18.2911 8.41429 17.7483 8.15204 17.1233C8.17683 17.3347 8.16639 17.4626 8.20814 17.5722C8.40124 18.0797 8.57477 18.5977 8.81745 19.0817C9.54027 20.5182 10.6493 21.6272 11.8992 22.6071C11.9736 22.6645 12.0245 22.7519 12.0858 22.8263C11.9918 22.872 11.9005 22.9515 11.804 22.9581C11.3173 22.9907 10.8228 23.0624 10.3427 23.0116C8.59304 22.8289 6.8708 22.5432 5.26077 21.7486C3.96778 21.1106 2.81963 20.3225 1.93372 19.1731C1.74192 18.9239 1.52925 18.6903 1.32571 18.4489C1.2944 18.475 1.26178 18.5011 1.23047 18.5272C1.68843 19.0961 2.09159 19.721 2.61348 20.2221C4.1387 21.6847 5.97054 22.6188 8.01504 23.1342C9.32629 23.4643 10.6584 23.5491 11.9984 23.3795C12.5294 23.3116 13.0082 23.3299 13.427 23.7005C13.4858 23.7526 13.5575 23.7905 13.6228 23.8361C14.9836 24.8069 16.5219 25.3222 18.1645 25.5049C19.3531 25.6367 20.5469 25.5897 21.7042 25.2335C22.7089 24.9243 23.7422 24.6764 24.6999 24.255C26.5422 23.4434 28.2474 22.3827 29.7413 21.0179C30.0819 20.7074 30.4094 20.4961 30.8778 20.68C30.8986 20.6878 30.9247 20.68 30.9443 20.6878C31.0408 20.7322 31.1348 20.7805 31.23 20.8274C31.1805 20.924 31.1518 21.0427 31.0774 21.1119C30.5033 21.6429 29.9449 22.1935 29.3343 22.6789C28.6441 23.2268 27.916 23.7292 27.1828 24.221C26.8514 24.4442 26.8227 24.4768 27.0954 24.7808C27.4124 25.1357 27.7203 25.4984 28.0335 25.8572C28.2122 26.062 28.1678 26.2068 27.9121 26.2825C27.2193 26.4847 26.6309 26.8631 26.1625 27.402C25.9537 27.6433 25.7698 27.6603 25.484 27.5781C24.2732 27.231 23.1577 27.3928 22.1948 28.2657C22.1413 28.314 22.0669 28.3388 21.9678 28.3936C21.7956 27.9173 21.5333 27.5468 21.0858 27.338C20.6435 27.1306 20.2038 26.9518 19.7367 27.3159C19.6219 27.0941 19.541 26.9075 19.4327 26.7366C19.2083 26.383 18.9121 26.1181 18.462 26.1703C17.8762 26.2381 17.3138 26.8318 17.2982 27.4228C17.289 27.7842 17.1729 27.9095 16.805 27.9252C16.21 27.9499 15.6268 28.6141 15.6907 29.1229C16.1722 28.2422 16.7411 27.9995 17.6387 28.3244C17.4821 27.5559 17.3308 26.7144 18.3837 26.5761C19.2161 26.4665 19.524 27.1071 19.5606 27.7582C19.9076 27.6681 20.2338 27.4907 20.5287 27.5337C20.8379 27.5794 21.1484 27.7986 21.4002 28.0126C21.7851 28.3401 21.806 28.6441 21.5946 29.1059C21.5164 29.2742 21.4668 29.4569 21.4041 29.633C21.4472 29.65 21.4916 29.6683 21.5346 29.6852C21.6168 29.5326 21.6951 29.3773 21.7825 29.2286C21.896 29.0342 21.9808 28.8019 22.1426 28.661C22.9698 27.9421 23.934 27.6094 25.0326 27.7542C25.6628 27.8377 25.7215 27.9643 25.5662 28.571C25.5166 28.7628 25.5323 28.9742 25.5375 29.1764C25.5375 29.2299 25.6106 29.2834 25.6771 29.3721C25.7254 29.0342 25.7202 28.7419 25.8115 28.4849C26.1742 27.4633 26.9871 26.9401 27.9747 26.6531C28.3466 26.5448 28.661 26.6074 28.965 26.9492C30.198 28.3388 31.4727 29.6918 32.7292 31.0604C32.9379 31.2887 33.1297 31.5327 33.3841 31.8341C33.1454 31.8498 33.0019 31.868 32.8583 31.868C31.4845 31.8693 30.1106 31.8707 28.7367 31.868C26.8527 31.8654 24.9687 31.868 23.0859 31.8511C21.622 31.838 20.1594 31.7885 18.6955 31.7754C16.8363 31.7584 14.9771 31.7624 13.1178 31.7598C13.0291 31.7598 12.9247 31.7467 12.8543 31.7871C12.7916 31.8224 12.7682 31.9241 12.7277 31.9972C12.7943 32.022 12.8621 32.0677 12.9273 32.0677C13.5836 32.0572 14.2412 32.0233 14.8975 32.0259C16.5532 32.0337 18.2089 32.0611 19.8646 32.0742C21.2932 32.0846 22.7219 32.0833 24.1506 32.0898C27.2154 32.1068 30.2802 32.1029 33.345 32.1629C33.9882 32.176 34.4201 31.9502 34.8246 31.5197C36.779 29.4347 38.7596 27.368 40.4127 25.0261C41.0716 24.0932 41.6391 23.0977 42.2576 22.1361C42.4024 21.9117 42.332 21.7747 42.148 21.6194C41.9588 21.4589 41.7879 21.2737 41.6313 21.0806C40.8459 20.1125 40.0591 19.1444 39.288 18.1645C38.2442 16.8376 37.2161 15.4989 36.1789 14.1681C36.0862 14.0494 35.9779 13.9437 35.8227 13.7715C34.8493 15.6868 33.9608 17.5669 32.5674 19.2174C32.4708 19.0556 32.4004 18.9695 32.3638 18.8704C32.1877 18.3967 32.0559 17.9049 31.8433 17.4482C31.4675 16.638 30.853 16.0848 30.0075 15.7364C29.0981 15.3606 28.177 15.3306 27.2767 15.5916C25.9746 15.97 24.7834 16.6093 23.7422 17.4926C23.5126 17.687 23.3417 17.6687 23.1146 17.5069C22.3122 16.9341 21.7225 16.1761 21.2384 15.3359C20.3512 13.795 19.9598 12.1197 19.9846 10.3479C19.999 9.39283 20.0772 8.44299 20.4869 7.55708C20.6357 7.23481 20.7909 6.91385 20.9436 6.59028C20.9214 6.5955 20.894 6.59419 20.8849 6.60594C20.8418 6.65812 20.8027 6.71423 20.7635 6.76903C20.0511 7.75148 19.8398 8.90095 19.7406 10.0648C19.631 11.3591 19.7393 12.6416 20.136 13.8941C20.573 15.2719 21.2606 16.4892 22.3148 17.486C22.9685 18.1045 22.9685 18.0927 22.1805 18.5794C21.9378 18.7295 21.7212 18.7947 21.455 18.6486C21.1576 18.4855 20.8483 18.3446 20.5417 18.1997C19.3179 17.6217 18.1632 16.9276 17.1012 16.0913C16.0287 15.2458 15.118 14.249 14.2947 13.1504C13.0943 11.5469 12.3559 9.75946 11.9344 7.82455C11.8248 7.32223 11.7818 6.80556 11.7087 6.29541C11.6396 8.38819 12.2945 10.314 13.2835 12.0897C15.0984 15.3502 17.7653 17.7065 21.3533 19.1156M29.2416 32.9457C29.239 32.9183 29.2364 32.8909 29.2325 32.8636C29.0864 32.8557 28.9402 32.8414 28.7941 32.8414C27.5351 32.8427 26.2773 32.8531 25.0195 32.8505C23.7148 32.8479 22.4101 32.8375 21.1054 32.8205C19.9141 32.8061 18.7242 32.7774 17.533 32.7605C17.4704 32.7605 17.4065 32.8074 17.3425 32.8335C17.4039 32.8805 17.4626 32.9614 17.5265 32.9679C17.9897 33.0071 18.4542 33.0527 18.9173 33.0567C19.9611 33.0645 21.0049 33.0449 22.0487 33.0449C22.8876 33.0449 23.7279 33.0671 24.5668 33.0632C25.8141 33.058 27.0614 33.0423 28.3088 33.0214C28.6193 33.0162 28.9298 32.9731 29.2403 32.9471M30.2306 32.8257C30.2306 32.8505 30.2306 32.8753 30.2306 32.9014C30.2998 32.9183 30.3689 32.951 30.4381 32.951C31.3788 32.9614 32.3195 32.9666 33.2602 32.9745C33.4076 32.9758 33.5551 32.994 33.7025 32.9836C33.7547 32.9797 33.803 32.9131 33.8525 32.874C33.8043 32.8231 33.7638 32.7513 33.7038 32.7279C33.6333 32.7018 33.5472 32.7161 33.4676 32.7174C32.48 32.7383 31.4936 32.7605 30.5072 32.7853C30.4146 32.7879 30.3233 32.8114 30.2306 32.8257Z" fill="white"></path>
  <path d="M21.356 19.1167C17.7693 17.7089 15.1025 15.3513 13.2863 12.0908C12.2973 10.315 11.641 8.38926 11.7115 6.29648C11.7846 6.80663 11.8276 7.3233 11.9372 7.82562C12.3586 9.76053 13.0958 11.548 14.2975 13.1515C15.1207 14.2501 16.0314 15.2482 17.1039 16.0924C18.1647 16.9287 19.3207 17.6228 20.5445 18.2008C20.8511 18.3456 21.1603 18.4865 21.4578 18.6483C21.7253 18.7944 21.9418 18.7292 22.1832 18.5792C22.9713 18.0925 22.9713 18.1042 22.3176 17.4858C21.2621 16.489 20.5745 15.2717 20.1387 13.8939C19.7421 12.6414 19.6338 11.3575 19.7434 10.0645C19.8425 8.90071 20.0526 7.75125 20.7663 6.76879C20.8067 6.71399 20.8446 6.65789 20.8876 6.6057C20.8981 6.59265 20.9255 6.59526 20.9463 6.59004C20.7937 6.91361 20.6384 7.23458 20.4897 7.55684C20.0813 8.44275 20.0017 9.39259 19.9874 10.3477C19.9613 12.1182 20.3527 13.7947 21.2412 15.3343C21.7253 16.1746 22.3137 16.9326 23.1174 17.5054C23.3444 17.6672 23.514 17.6867 23.745 17.491C24.7861 16.6077 25.9774 15.9671 27.2795 15.59C28.1797 15.3291 29.1009 15.3591 30.0103 15.7349C30.8557 16.0832 31.469 16.6364 31.846 17.4467C32.0574 17.9033 32.1905 18.3952 32.3666 18.8688C32.4031 18.968 32.4736 19.0541 32.5701 19.2159C33.9636 17.5654 34.8508 15.6866 35.8254 13.7699C35.9807 13.9422 36.089 14.0479 36.1816 14.1666C37.2189 15.4987 38.2483 16.8361 39.2908 18.163C40.0619 19.1428 40.8473 20.1109 41.6341 21.079C41.7906 21.2721 41.9629 21.4574 42.1507 21.6179C42.3334 21.7731 42.4039 21.9101 42.2603 22.1345C41.6432 23.0961 41.0743 24.0916 40.4155 25.0245C38.7624 27.3665 36.7831 29.4319 34.8273 31.5168C34.4242 31.9474 33.991 32.1731 33.3478 32.1601C30.2843 32.1 27.2182 32.104 24.1534 32.087C22.7247 32.0792 21.296 32.0818 19.8673 32.0713C18.2116 32.0596 16.5559 32.0309 14.9002 32.0231C14.244 32.0205 13.5877 32.0544 12.9301 32.0648C12.8636 32.0648 12.797 32.0192 12.7305 31.9944C12.7709 31.9213 12.7957 31.8208 12.857 31.7843C12.9275 31.7439 13.0306 31.7556 13.1206 31.7569C14.9798 31.7608 16.8391 31.7569 18.6983 31.7726C20.1622 31.7856 21.6248 31.8352 23.0887 31.8482C24.9727 31.8652 26.8554 31.8613 28.7395 31.8652C30.1133 31.8678 31.4872 31.8665 32.8611 31.8652C33.0046 31.8652 33.1481 31.8469 33.3869 31.8313C33.1325 31.5299 32.9407 31.2859 32.7319 31.0576C31.4755 29.6876 30.2008 28.3359 28.9678 26.9464C28.6651 26.6045 28.3494 26.5432 27.9775 26.6502C26.9898 26.9372 26.177 27.4604 25.8143 28.482C25.7229 28.7404 25.7282 29.0326 25.6799 29.3706C25.6133 29.2805 25.5416 29.2283 25.5403 29.1749C25.5351 28.9726 25.5194 28.7613 25.569 28.5695C25.7243 27.9628 25.6655 27.8362 25.0354 27.7527C23.9368 27.6079 22.9726 27.9406 22.1454 28.6595C21.9836 28.8004 21.8988 29.0326 21.7853 29.227C21.6979 29.3771 21.6196 29.531 21.5374 29.6837C21.4943 29.6667 21.45 29.6485 21.4069 29.6315C21.4695 29.4554 21.5191 29.274 21.5974 29.1044C21.8088 28.6425 21.7879 28.3385 21.403 28.011C21.1525 27.7984 20.8407 27.5779 20.5314 27.5322C20.2379 27.4891 19.9104 27.6666 19.5633 27.7566C19.5268 27.1056 19.2189 26.4662 18.3865 26.5745C17.3336 26.7128 17.4849 27.5544 17.6415 28.3229C16.7438 27.998 16.175 28.2407 15.6935 29.1214C15.6296 28.6125 16.2128 27.9484 16.8078 27.9236C17.1757 27.908 17.2918 27.784 17.3009 27.4213C17.3153 26.8303 17.8789 26.2366 18.4648 26.1688C18.9149 26.1166 19.2124 26.3827 19.4355 26.735C19.5438 26.9059 19.6247 27.0925 19.7395 27.3143C20.2066 26.9503 20.6463 27.1303 21.0886 27.3365C21.5361 27.5466 21.7983 27.9171 21.9706 28.392C22.0684 28.3372 22.1441 28.3124 22.1976 28.2642C23.1605 27.3913 24.276 27.2295 25.4868 27.5766C25.7738 27.6588 25.9565 27.6418 26.1652 27.4004C26.6336 26.8603 27.2221 26.4832 27.9149 26.281C28.1706 26.2066 28.215 26.0605 28.0362 25.8556C27.7231 25.4968 27.4152 25.1328 27.0981 24.7792C26.8254 24.4752 26.8541 24.4426 27.1855 24.2195C27.9175 23.7276 28.6468 23.2266 29.3357 22.6773C29.9463 22.192 30.5048 21.6414 31.0788 21.1103C31.1532 21.0412 31.1819 20.9212 31.2315 20.8259C31.1363 20.7789 31.041 20.7307 30.9458 20.6863C30.9262 20.6772 30.8988 20.6863 30.8792 20.6785C30.4108 20.4945 30.0833 20.7046 29.7428 21.0164C28.2489 22.3811 26.5436 23.4419 24.7013 24.2534C23.745 24.6749 22.7103 24.9214 21.7057 25.232C20.5484 25.5882 19.3546 25.6364 18.166 25.5034C16.522 25.3207 14.9851 24.8053 13.6242 23.8346C13.559 23.7889 13.4872 23.7511 13.4285 23.6989C13.011 23.3271 12.5309 23.3101 11.9998 23.378C10.6599 23.5476 9.32776 23.4628 8.01651 23.1327C5.972 22.6173 4.14017 21.6831 2.61494 20.2205C2.09175 19.7195 1.68859 19.0932 1.23193 18.5257C1.26325 18.4996 1.29586 18.4735 1.32718 18.4474C1.53072 18.6888 1.74208 18.9223 1.93518 19.1715C2.82109 20.321 3.96925 21.109 5.26223 21.747C6.87357 22.5416 8.5945 22.8274 10.3441 23.01C10.8243 23.0596 11.3188 22.9878 11.8054 22.9565C11.902 22.95 11.9933 22.8704 12.0873 22.8247C12.0259 22.7517 11.9737 22.6643 11.9007 22.6056C10.6494 21.6244 9.54043 20.5167 8.81892 19.0802C8.57624 18.5974 8.40271 18.0782 8.20961 17.5719C8.16786 17.4623 8.17829 17.3345 8.1535 17.1231C8.41445 17.7481 8.6206 18.2908 8.86719 18.8153C9.23121 19.5916 9.70743 20.2949 10.3676 20.8559C11.067 21.4496 11.765 22.0471 12.4839 22.616C12.63 22.7308 12.8831 22.7895 13.0697 22.7608C15.4039 22.4085 17.5254 21.4848 19.5412 20.2923C19.99 20.0274 20.4362 19.756 20.8772 19.4794C21.0259 19.3868 21.159 19.2681 21.3573 19.1167M27.1764 20.0013C26.9194 20.0313 26.7511 20.0692 26.5828 20.0666C25.2154 20.0509 23.8715 19.85 22.559 19.4703C22.0345 19.3189 21.5922 19.2668 21.1264 19.6764C20.671 20.077 20.1348 20.3901 19.6129 20.7098C17.7954 21.824 15.8618 22.6643 13.773 23.1222C13.6973 23.1392 13.6334 23.2136 13.5642 23.2618C13.6229 23.3218 13.6712 23.4001 13.7416 23.438C14.1096 23.6376 14.4906 23.8163 14.8546 24.0238C16.2167 24.8014 17.6963 25.0337 19.2411 25.048C20.7846 25.0611 22.2641 24.7518 23.698 24.2286C24.5774 23.9077 25.4724 23.5658 26.2605 23.0726C27.4661 22.3185 28.5881 21.4313 29.7363 20.5871C30.0403 20.3627 30.3404 20.261 30.7161 20.3614C30.9653 20.428 31.2289 20.4632 31.4872 20.4684C31.5825 20.471 31.7025 20.364 31.7651 20.274C31.7899 20.2388 31.7103 20.094 31.6464 20.0365C31.529 19.9335 31.3789 19.8656 31.2563 19.7665C31.1832 19.7091 31.1363 19.619 31.0775 19.5447C31.1075 19.512 31.1363 19.4794 31.1663 19.4455C31.6268 19.7782 32.0887 20.1109 32.5493 20.4449C32.5832 20.4175 32.6171 20.3914 32.6523 20.364C32.5467 20.0483 32.4801 19.713 32.3275 19.422C32.0691 18.9262 31.7103 18.4761 31.7873 17.8668C31.7925 17.8263 31.7612 17.7807 31.7456 17.7376C31.4833 16.977 30.9327 16.5034 30.2138 16.1967C28.4303 15.4348 26.7641 15.9319 25.1998 16.7865C24.2434 17.3097 23.4058 18.0508 22.5185 18.7005C22.4546 18.7475 22.3855 18.844 22.392 18.9106C22.3972 18.9667 22.5042 19.0371 22.5773 19.0567C23.377 19.2589 24.1755 19.4729 24.9819 19.6399C25.6773 19.7847 26.3831 19.8735 27.1751 20.0013M34.2324 31.569C34.509 31.3381 34.7634 31.1711 34.963 30.9545C35.9977 29.8285 37.0193 28.6908 38.0422 27.5544C39.326 26.127 40.452 24.5796 41.4866 22.9657C41.6941 22.6434 41.8572 22.2924 42.0699 21.9023C41.9002 21.8919 41.8337 21.8788 41.7698 21.8867C39.797 22.1072 37.8256 22.3381 35.8515 22.5442C35.481 22.5834 35.2696 22.7726 35.1405 23.0753C35.0348 23.3232 34.9395 23.588 34.9082 23.8529C34.7451 25.2254 34.6042 26.6019 34.4568 27.9758C34.3811 28.6856 34.2911 29.394 34.2389 30.1064C34.2063 30.5618 34.2324 31.021 34.2324 31.569ZM35.571 14.6663C35.4679 14.849 35.4092 14.9403 35.3636 15.0368C34.7073 16.4342 33.9505 17.7781 33.0229 19.0071C32.655 19.4938 32.6523 19.9126 32.8102 20.4254C32.8533 20.565 32.8167 20.7281 32.8167 20.8807C32.7828 20.8898 32.7502 20.899 32.7163 20.9081C32.6145 20.8246 32.5114 20.7437 32.4123 20.6576C32.0757 20.364 32.0861 20.3732 31.7808 20.6811C30.63 21.8384 29.4466 22.9617 28.0975 23.892C27.9175 24.016 27.744 24.1504 27.5665 24.2808C27.5757 24.3108 27.5861 24.3421 27.5952 24.3722C27.7127 24.3813 27.8327 24.41 27.9462 24.3943C28.2828 24.3474 28.6207 24.303 28.9495 24.2221C30.7983 23.7681 32.6276 23.2383 34.3733 22.4712C35.0439 22.1763 35.6819 21.8005 36.3069 21.4169C36.7283 21.1586 36.9462 20.7385 36.8823 20.227C36.8405 19.8904 36.7635 19.5577 36.6852 19.2276C36.3578 17.8498 36.0238 16.4746 35.6924 15.0982C35.665 14.9846 35.6297 14.8737 35.571 14.6702M27.3617 24.7688C27.4543 24.8823 27.5417 24.9971 27.637 25.1041C28.3728 25.9209 29.0957 26.7494 29.8485 27.5492C31.0371 28.8108 32.244 30.0542 33.4495 31.3003C33.5213 31.3746 33.6374 31.4085 33.7327 31.4607C33.7796 31.3524 33.8553 31.2481 33.8683 31.1359C33.9532 30.37 34.0184 29.6028 34.1032 28.8369C34.2598 27.4174 34.4255 25.9991 34.5846 24.5809C34.6016 24.4309 34.6016 24.2795 34.6081 24.153C32.18 24.3591 29.795 24.5613 27.363 24.7675M41.5245 21.7157C41.5427 21.6805 41.5597 21.6453 41.578 21.6087C39.7487 19.2211 37.9208 16.8348 36.0668 14.4145C36.0094 14.5163 35.982 14.5437 35.9807 14.5711C35.9794 14.6493 35.9794 14.7302 35.9951 14.8072C36.3121 16.335 36.6187 17.8668 36.9579 19.3894C37.1223 20.1305 37.245 20.8259 36.6579 21.4678C36.5391 21.597 36.59 21.9206 36.6383 22.1385C36.6513 22.1946 36.954 22.2207 37.1171 22.2037C38.1661 22.1006 39.2138 21.9845 40.2602 21.8697C40.6816 21.8227 41.1031 21.7666 41.5232 21.7144" fill="black"></path>
  <path d="M29.243 32.9471C28.9325 32.9732 28.622 33.0162 28.3114 33.0214C27.0641 33.0423 25.8168 33.058 24.5695 33.0632C23.7305 33.0671 22.8903 33.0449 22.0514 33.0449C21.0076 33.0449 19.9638 33.0645 18.92 33.0567C18.4555 33.0528 17.9911 33.0084 17.5292 32.968C17.4639 32.9627 17.4065 32.8805 17.3452 32.8336C17.4091 32.8088 17.4718 32.7592 17.5357 32.7605C18.7269 32.7775 19.9168 32.8062 21.108 32.8205C22.4128 32.8362 23.7175 32.8466 25.0222 32.8492C26.28 32.8518 27.539 32.8427 28.7968 32.8401C28.9429 32.8401 29.0891 32.8544 29.2352 32.8623C29.2378 32.8897 29.2404 32.9171 29.2443 32.9445" fill="black"></path>
  <path d="M30.2344 32.8269C30.327 32.8125 30.4183 32.789 30.511 32.7864C31.4974 32.7616 32.485 32.7395 33.4714 32.7186C33.551 32.7173 33.6371 32.7029 33.7076 32.729C33.7663 32.7512 33.8067 32.8243 33.8563 32.8752C33.8067 32.913 33.7584 32.9808 33.7063 32.9848C33.5601 32.9952 33.4114 32.9769 33.2639 32.9756C32.3232 32.9678 31.3825 32.9626 30.4418 32.9521C30.3727 32.9521 30.3035 32.9195 30.2344 32.9026C30.2344 32.8778 30.2344 32.853 30.2344 32.8269Z" fill="black"></path>
  <path d="M27.1749 20.0013C26.3829 19.8734 25.6757 19.7847 24.9816 19.6399C24.174 19.4716 23.3768 19.2576 22.577 19.0567C22.504 19.0384 22.397 18.9667 22.3904 18.9106C22.3839 18.8453 22.4531 18.7475 22.517 18.7005C23.4042 18.052 24.2405 17.3097 25.1969 16.7878C26.7613 15.9319 28.4287 15.4361 30.211 16.198C30.9299 16.5046 31.4805 16.9783 31.7427 17.7389C31.7571 17.782 31.7884 17.8263 31.7832 17.8681C31.7062 18.4774 32.065 18.9288 32.3233 19.4233C32.476 19.7143 32.5425 20.0509 32.6482 20.3653C32.6143 20.3927 32.5804 20.4188 32.5451 20.4462C32.0846 20.1135 31.6227 19.7808 31.1621 19.4481C31.1321 19.4807 31.1034 19.5133 31.0734 19.546C31.1321 19.6216 31.1804 19.7104 31.2521 19.7678C31.3761 19.8669 31.5248 19.9335 31.6423 20.0378C31.7075 20.0952 31.7871 20.2388 31.761 20.2753C31.6984 20.3653 31.5783 20.471 31.4831 20.4697C31.2247 20.4645 30.9612 20.4293 30.712 20.3627C30.3362 20.2622 30.0361 20.364 29.7321 20.5884C28.584 21.4326 27.4619 22.3198 26.2563 23.0739C25.4683 23.5671 24.5733 23.9103 23.6939 24.2299C22.26 24.7518 20.7804 25.0623 19.2369 25.0493C17.6921 25.0362 16.2126 24.8027 14.8504 24.0251C14.4864 23.8176 14.1067 23.6402 13.7375 23.4393C13.667 23.4014 13.6188 23.3231 13.5601 23.2631C13.6292 23.2148 13.6918 23.1405 13.7688 23.1235C15.859 22.6656 17.7913 21.824 19.6101 20.7111C20.1307 20.3914 20.6682 20.0783 21.1236 19.6777C21.588 19.268 22.0316 19.3189 22.5561 19.4716C23.8687 19.8513 25.2113 20.0522 26.5799 20.0678C26.7482 20.0692 26.9152 20.0313 27.1723 20.0026M29.1046 17.3736C28.9911 17.4401 28.8788 17.5067 28.7653 17.5719C28.8332 17.6345 28.9036 17.7546 28.9702 17.752C29.5116 17.735 29.8261 18.0416 30.0727 18.4722C30.104 18.5257 30.2071 18.5857 30.2553 18.57C30.3114 18.5531 30.3832 18.4539 30.378 18.3965C30.3662 18.2464 30.3662 18.0455 30.2736 17.962C29.9526 17.6763 29.6043 17.4088 29.1072 17.3736" fill="white"></path>
  <path d="M34.2316 31.5705C34.2316 31.0212 34.2055 30.5619 34.2381 30.1079C34.289 29.3968 34.379 28.6871 34.456 27.9773C34.6034 26.6021 34.7443 25.2269 34.9074 23.8543C34.9387 23.5895 35.034 23.3233 35.1397 23.0767C35.2688 22.774 35.4802 22.5848 35.8507 22.5457C37.8248 22.3396 39.7962 22.1086 41.769 21.8881C41.8329 21.8816 41.8994 21.8946 42.069 21.9038C41.8564 22.2939 41.6933 22.6449 41.4858 22.9671C40.4512 24.5811 39.3252 26.1285 38.0414 27.5559C37.0185 28.6923 35.9969 29.83 34.9622 30.956C34.7626 31.1739 34.5082 31.3409 34.2316 31.5705Z" fill="white"></path>
  <path d="M35.5701 14.6664C35.6275 14.8712 35.664 14.9821 35.6914 15.0943C36.0241 16.4708 36.3581 17.846 36.6856 19.2238C36.7639 19.5539 36.8409 19.8866 36.8826 20.2232C36.9453 20.7347 36.7274 21.1548 36.3073 21.4131C35.6823 21.7967 35.0443 22.1738 34.3736 22.4673C32.6279 23.2345 30.8 23.7642 28.9499 24.2183C28.6211 24.2992 28.2819 24.3435 27.9466 24.3905C27.8331 24.4062 27.713 24.3775 27.5956 24.3683C27.5865 24.3383 27.576 24.307 27.5669 24.277C27.7443 24.1478 27.9179 24.0134 28.0979 23.8882C29.447 22.9579 30.6304 21.8345 31.7812 20.6773C32.0865 20.3693 32.076 20.3602 32.4126 20.6538C32.5118 20.7399 32.6149 20.8208 32.7166 20.9043C32.7506 20.8951 32.7832 20.886 32.8171 20.8769C32.8171 20.7242 32.8536 20.5611 32.8106 20.4215C32.6527 19.9088 32.6553 19.4913 33.0233 19.0033C33.9522 17.7755 34.7077 16.4304 35.3639 15.033C35.4096 14.9365 35.4683 14.8451 35.5714 14.6625" fill="white"></path>
  <path d="M27.3617 24.765C29.7937 24.5589 32.1787 24.3566 34.6068 24.1492C34.6003 24.2744 34.6003 24.4271 34.5833 24.5771C34.4241 25.9954 34.2584 27.4136 34.1019 28.8332C34.0171 29.599 33.9518 30.3662 33.867 31.1321C33.854 31.2443 33.7783 31.3487 33.7313 31.457C33.6361 31.4048 33.52 31.3709 33.4482 31.2965C32.2439 30.0505 31.0358 28.8071 29.8472 27.5454C29.093 26.7456 28.3702 25.9171 27.6357 25.099C27.5404 24.992 27.453 24.8772 27.3604 24.7637" fill="white"></path>
  <path d="M41.522 21.7132C41.1006 21.7654 40.6805 21.8228 40.259 21.8685C39.2113 21.9846 38.1636 22.1007 37.1159 22.2025C36.9515 22.2181 36.6488 22.1933 36.6371 22.1372C36.5875 21.9207 36.5379 21.5971 36.6567 21.4666C37.2438 20.8247 37.1212 20.1293 36.9568 19.3882C36.6175 17.8643 36.3122 16.3338 35.9939 14.806C35.9782 14.729 35.9782 14.6481 35.9795 14.5698C35.9795 14.5411 36.0082 14.5137 36.0656 14.4133C37.9197 16.8322 39.7476 19.2199 41.5768 21.6075C41.5585 21.6427 41.5416 21.678 41.5233 21.7145" fill="white"></path>
  <path d="M29.108 17.3739C29.6064 17.4104 29.9547 17.6766 30.2744 17.9623C30.367 18.0445 30.367 18.2467 30.3788 18.3968C30.3827 18.4542 30.3122 18.5534 30.2561 18.5703C30.2078 18.5847 30.1048 18.526 30.0734 18.4725C29.8282 18.0419 29.5137 17.7353 28.971 17.7523C28.9044 17.7549 28.8353 17.6348 28.7661 17.5722C28.8796 17.5057 28.9931 17.4404 29.1053 17.3739" fill="black"></path>
  <path d="M62.992 30.5V13.7H65.776V30.5H62.992ZM81.0745 30.788C80.1945 30.788 79.3865 30.684 78.6505 30.476C77.9305 30.268 77.2905 29.98 76.7305 29.612C76.1865 29.244 75.7305 28.836 75.3625 28.388C75.0105 27.924 74.7625 27.444 74.6185 26.948L77.3545 26.108C77.5625 26.7 77.9705 27.22 78.5785 27.668C79.1865 28.116 79.9385 28.348 80.8345 28.364C81.8745 28.364 82.6985 28.148 83.3065 27.716C83.9145 27.284 84.2185 26.716 84.2185 26.012C84.2185 25.372 83.9625 24.852 83.4505 24.452C82.9385 24.036 82.2505 23.716 81.3865 23.492L79.3225 22.964C78.5385 22.756 77.8265 22.452 77.1865 22.052C76.5625 21.652 76.0665 21.148 75.6985 20.54C75.3465 19.932 75.1705 19.212 75.1705 18.38C75.1705 16.812 75.6825 15.596 76.7065 14.732C77.7305 13.852 79.1945 13.412 81.0985 13.412C82.1705 13.412 83.1065 13.58 83.9065 13.916C84.7225 14.236 85.3945 14.684 85.9225 15.26C86.4505 15.82 86.8425 16.46 87.0985 17.18L84.4105 18.044C84.1705 17.404 83.7545 16.876 83.1625 16.46C82.5705 16.044 81.8345 15.836 80.9545 15.836C80.0425 15.836 79.3225 16.052 78.7945 16.484C78.2825 16.916 78.0265 17.516 78.0265 18.284C78.0265 18.908 78.2265 19.396 78.6265 19.748C79.0425 20.084 79.6025 20.34 80.3065 20.516L82.3705 21.02C83.8745 21.388 85.0425 22.02 85.8745 22.916C86.7065 23.812 87.1225 24.804 87.1225 25.892C87.1225 26.852 86.8905 27.7 86.4265 28.436C85.9625 29.172 85.2745 29.748 84.3625 30.164C83.4665 30.58 82.3705 30.788 81.0745 30.788ZM97.0189 30.5L96.8989 28.244V24.332C96.8989 23.516 96.8109 22.836 96.6349 22.292C96.4749 21.732 96.2029 21.308 95.8189 21.02C95.4509 20.716 94.9549 20.564 94.3309 20.564C93.7549 20.564 93.2509 20.684 92.8189 20.924C92.3869 21.164 92.0189 21.54 91.7149 22.052L89.3629 21.188C89.6189 20.66 89.9549 20.172 90.3709 19.724C90.8029 19.26 91.3389 18.892 91.9789 18.62C92.6349 18.348 93.4189 18.212 94.3309 18.212C95.4989 18.212 96.4749 18.444 97.2589 18.908C98.0429 19.356 98.6189 20.004 98.9869 20.852C99.3709 21.7 99.5629 22.724 99.5629 23.924L99.4909 30.5H97.0189ZM93.5629 30.788C92.1229 30.788 91.0029 30.468 90.2029 29.828C89.4189 29.188 89.0269 28.284 89.0269 27.116C89.0269 25.868 89.4429 24.916 90.2749 24.26C91.1229 23.604 92.2989 23.276 93.8029 23.276H97.0189V25.34H94.6669C93.5949 25.34 92.8429 25.492 92.4109 25.796C91.9789 26.084 91.7629 26.5 91.7629 27.044C91.7629 27.508 91.9469 27.876 92.3149 28.148C92.6989 28.404 93.2269 28.532 93.8989 28.532C94.5069 28.532 95.0349 28.396 95.4829 28.124C95.9309 27.852 96.2749 27.492 96.5149 27.044C96.7709 26.596 96.8989 26.092 96.8989 25.532H97.6909C97.6909 27.164 97.3629 28.452 96.7069 29.396C96.0509 30.324 95.0029 30.788 93.5629 30.788ZM103.9 35.588C103.516 35.588 103.084 35.516 102.604 35.372C102.14 35.228 101.692 35.044 101.26 34.82L102.268 32.636C102.572 32.78 102.852 32.892 103.108 32.972C103.364 33.068 103.572 33.116 103.732 33.116C104.116 33.116 104.436 33.012 104.692 32.804C104.964 32.612 105.18 32.324 105.34 31.94L106.756 28.628L110.812 18.5H113.74L108.172 31.772C107.836 32.54 107.492 33.212 107.14 33.788C106.804 34.364 106.38 34.804 105.868 35.108C105.356 35.428 104.7 35.588 103.9 35.588ZM106.036 30.5L100.66 18.5H103.588L107.764 28.604L108.628 30.5H106.036ZM129.337 30.788C127.641 30.788 126.129 30.42 124.801 29.684C123.489 28.932 122.457 27.908 121.705 26.612C120.953 25.3 120.577 23.804 120.577 22.124C120.577 20.412 120.953 18.908 121.705 17.612C122.457 16.3 123.489 15.276 124.801 14.54C126.129 13.788 127.641 13.412 129.337 13.412C130.313 13.412 131.225 13.564 132.073 13.868C132.937 14.172 133.713 14.588 134.401 15.116C135.089 15.628 135.649 16.228 136.081 16.916L133.825 18.356C133.521 17.892 133.129 17.476 132.649 17.108C132.169 16.74 131.641 16.46 131.065 16.268C130.505 16.06 129.929 15.956 129.337 15.956C128.185 15.956 127.161 16.22 126.265 16.748C125.385 17.276 124.689 18.004 124.177 18.932C123.665 19.844 123.409 20.908 123.409 22.124C123.409 23.308 123.657 24.364 124.153 25.292C124.665 26.22 125.369 26.948 126.265 27.476C127.177 28.004 128.225 28.268 129.409 28.268C130.337 28.268 131.169 28.076 131.905 27.692C132.641 27.308 133.217 26.772 133.633 26.084C134.065 25.396 134.281 24.604 134.281 23.708L136.945 23.372C136.945 24.892 136.617 26.212 135.961 27.332C135.321 28.436 134.425 29.292 133.273 29.9C132.137 30.492 130.825 30.788 129.337 30.788ZM130.249 23.924V21.668H136.945V23.54L135.457 23.924H130.249ZM144.649 30.788C143.449 30.788 142.377 30.524 141.433 29.996C140.505 29.452 139.777 28.708 139.249 27.764C138.721 26.82 138.457 25.732 138.457 24.5C138.457 23.268 138.713 22.18 139.225 21.236C139.753 20.292 140.481 19.556 141.409 19.028C142.337 18.484 143.401 18.212 144.601 18.212C145.801 18.212 146.865 18.484 147.793 19.028C148.721 19.556 149.441 20.292 149.953 21.236C150.481 22.18 150.745 23.268 150.745 24.5C150.745 25.732 150.489 26.82 149.977 27.764C149.465 28.708 148.745 29.452 147.817 29.996C146.889 30.524 145.833 30.788 144.649 30.788ZM144.649 28.316C145.305 28.316 145.889 28.156 146.401 27.836C146.913 27.5 147.313 27.052 147.601 26.492C147.889 25.916 148.033 25.252 148.033 24.5C148.033 23.748 147.881 23.092 147.577 22.532C147.289 21.956 146.889 21.508 146.377 21.188C145.865 20.852 145.273 20.684 144.601 20.684C143.929 20.684 143.337 20.844 142.825 21.164C142.313 21.484 141.913 21.932 141.625 22.508C141.337 23.084 141.193 23.748 141.193 24.5C141.193 25.252 141.337 25.916 141.625 26.492C141.929 27.052 142.337 27.5 142.849 27.836C143.377 28.156 143.977 28.316 144.649 28.316ZM158.594 30.788C157.394 30.788 156.322 30.524 155.378 29.996C154.45 29.452 153.722 28.708 153.194 27.764C152.666 26.82 152.402 25.732 152.402 24.5C152.402 23.268 152.658 22.18 153.17 21.236C153.698 20.292 154.426 19.556 155.354 19.028C156.282 18.484 157.346 18.212 158.546 18.212C159.746 18.212 160.81 18.484 161.738 19.028C162.666 19.556 163.386 20.292 163.898 21.236C164.426 22.18 164.69 23.268 164.69 24.5C164.69 25.732 164.434 26.82 163.922 27.764C163.41 28.708 162.69 29.452 161.762 29.996C160.834 30.524 159.778 30.788 158.594 30.788ZM158.594 28.316C159.25 28.316 159.834 28.156 160.346 27.836C160.858 27.5 161.258 27.052 161.546 26.492C161.834 25.916 161.978 25.252 161.978 24.5C161.978 23.748 161.826 23.092 161.522 22.532C161.234 21.956 160.834 21.508 160.322 21.188C159.81 20.852 159.218 20.684 158.546 20.684C157.874 20.684 157.282 20.844 156.77 21.164C156.258 21.484 155.858 21.932 155.57 22.508C155.282 23.084 155.138 23.748 155.138 24.5C155.138 25.252 155.282 25.916 155.57 26.492C155.874 27.052 156.282 27.5 156.794 27.836C157.322 28.156 157.922 28.316 158.594 28.316ZM175.683 30.5L175.563 28.268V13.7H178.227V30.5H175.683ZM171.771 30.788C170.683 30.788 169.731 30.532 168.915 30.02C168.115 29.492 167.483 28.756 167.019 27.812C166.571 26.868 166.347 25.764 166.347 24.5C166.347 23.22 166.571 22.116 167.019 21.188C167.483 20.244 168.115 19.516 168.915 19.004C169.731 18.476 170.683 18.212 171.771 18.212C172.779 18.212 173.643 18.476 174.363 19.004C175.099 19.516 175.659 20.244 176.043 21.188C176.427 22.116 176.619 23.22 176.619 24.5C176.619 25.764 176.427 26.868 176.043 27.812C175.659 28.756 175.099 29.492 174.363 30.02C173.643 30.532 172.779 30.788 171.771 30.788ZM172.443 28.34C173.051 28.34 173.587 28.18 174.051 27.86C174.531 27.524 174.899 27.068 175.155 26.492C175.427 25.916 175.563 25.252 175.563 24.5C175.563 23.748 175.427 23.084 175.155 22.508C174.899 21.932 174.531 21.484 174.051 21.164C173.587 20.844 173.043 20.684 172.419 20.684C171.779 20.684 171.211 20.844 170.715 21.164C170.219 21.484 169.827 21.932 169.539 22.508C169.267 23.084 169.123 23.748 169.107 24.5C169.123 25.252 169.267 25.916 169.539 26.492C169.827 27.068 170.219 27.524 170.715 27.86C171.227 28.18 171.803 28.34 172.443 28.34ZM181.199 30.5V13.7H183.887V28.268L183.743 30.5H181.199ZM187.679 30.788C186.671 30.788 185.799 30.532 185.063 30.02C184.343 29.492 183.791 28.756 183.407 27.812C183.023 26.868 182.831 25.764 182.831 24.5C182.831 23.22 183.023 22.116 183.407 21.188C183.791 20.244 184.343 19.516 185.063 19.004C185.799 18.476 186.671 18.212 187.679 18.212C188.767 18.212 189.711 18.476 190.511 19.004C191.327 19.516 191.959 20.244 192.407 21.188C192.871 22.116 193.103 23.22 193.103 24.5C193.103 25.764 192.871 26.868 192.407 27.812C191.959 28.756 191.327 29.492 190.511 30.02C189.711 30.532 188.767 30.788 187.679 30.788ZM187.007 28.34C187.647 28.34 188.215 28.18 188.711 27.86C189.207 27.524 189.599 27.068 189.887 26.492C190.191 25.916 190.343 25.252 190.343 24.5C190.343 23.748 190.199 23.084 189.911 22.508C189.639 21.932 189.255 21.484 188.759 21.164C188.263 20.844 187.687 20.684 187.031 20.684C186.423 20.684 185.879 20.844 185.399 21.164C184.919 21.484 184.543 21.932 184.271 22.508C184.015 23.084 183.887 23.748 183.887 24.5C183.887 25.252 184.015 25.916 184.271 26.492C184.543 27.068 184.911 27.524 185.375 27.86C185.855 28.18 186.399 28.34 187.007 28.34ZM196.853 35.588C196.469 35.588 196.037 35.516 195.557 35.372C195.093 35.228 194.645 35.044 194.213 34.82L195.221 32.636C195.525 32.78 195.805 32.892 196.061 32.972C196.317 33.068 196.525 33.116 196.685 33.116C197.069 33.116 197.389 33.012 197.645 32.804C197.917 32.612 198.133 32.324 198.293 31.94L199.709 28.628L203.765 18.5H206.693L201.125 31.772C200.789 32.54 200.445 33.212 200.093 33.788C199.757 34.364 199.333 34.804 198.821 35.108C198.309 35.428 197.653 35.588 196.853 35.588ZM198.989 30.5L193.613 18.5H196.541L200.717 28.604L201.581 30.5H198.989ZM213.317 30.788C212.149 30.788 211.109 30.524 210.197 29.996C209.301 29.452 208.589 28.708 208.061 27.764C207.549 26.82 207.293 25.732 207.293 24.5C207.293 23.268 207.557 22.18 208.085 21.236C208.613 20.292 209.333 19.556 210.245 19.028C211.173 18.484 212.229 18.212 213.413 18.212C214.485 18.212 215.453 18.492 216.317 19.052C217.181 19.596 217.861 20.388 218.357 21.428C218.869 22.468 219.125 23.708 219.125 25.148H209.693L210.053 24.812C210.053 25.548 210.213 26.188 210.533 26.732C210.853 27.26 211.277 27.668 211.805 27.956C212.333 28.244 212.917 28.388 213.557 28.388C214.293 28.388 214.901 28.228 215.381 27.908C215.861 27.572 216.237 27.14 216.509 26.612L218.885 27.62C218.549 28.26 218.117 28.82 217.589 29.3C217.077 29.78 216.461 30.148 215.741 30.404C215.037 30.66 214.229 30.788 213.317 30.788ZM210.221 23.42L209.837 23.084H216.605L216.245 23.42C216.245 22.764 216.101 22.228 215.813 21.812C215.525 21.38 215.157 21.06 214.709 20.852C214.277 20.628 213.821 20.516 213.341 20.516C212.861 20.516 212.381 20.628 211.901 20.852C211.421 21.06 211.021 21.38 210.701 21.812C210.381 22.228 210.221 22.764 210.221 23.42Z" fill="black"></path>
</svg>
