<?xml version="1.0" encoding="UTF-8"?>
<svg xmlns="http://www.w3.org/2000/svg" width="80" height="80" viewBox="0 0 80 80" fill="none">
  <path d="M73.6156 8.65622C73.3142 8.39581 72.9473 8.22267 72.5546 8.15548C72.162 8.08829 71.7584 8.12961 71.3875 8.27497L8.05626 33.0593C7.28595 33.3608 6.63422 33.9039 6.19895 34.6073C5.76368 35.3107 5.56836 36.1364 5.64233 36.9602C5.7163 37.7841 6.05556 38.5617 6.60916 39.1763C7.16277 39.7909 7.90083 40.2093 8.71251 40.3687L25.625 43.6906V62.5C25.6254 63.372 25.8863 64.224 26.3743 64.9466C26.8623 65.6693 27.5551 66.2296 28.3638 66.5557C29.1726 66.8819 30.0603 66.9589 30.9131 66.7769C31.7659 66.5949 32.5449 66.1622 33.15 65.5343L41.475 56.9L54.4688 68.2906C55.2621 68.9925 56.2845 69.3804 57.3438 69.3812C57.8063 69.3801 58.266 69.3074 58.7063 69.1656C59.4281 68.9372 60.0775 68.5235 60.5896 67.9659C61.1017 67.4082 61.4587 66.7261 61.625 65.9875L74.3188 10.8031C74.408 10.4151 74.3897 10.0102 74.2658 9.63187C74.1419 9.25355 73.9171 8.91622 73.6156 8.65622ZM9.39063 36.6781C9.37866 36.6458 9.37866 36.6104 9.39063 36.5781C9.40475 36.5672 9.42059 36.5587 9.43751 36.5531L59.3469 17.0156L27.0656 40.1406L9.43751 36.6906L9.39063 36.6781ZM30.45 62.9281C30.3639 63.0175 30.2531 63.0792 30.1318 63.1053C30.0104 63.1315 29.884 63.121 29.7687 63.075C29.6534 63.0291 29.5544 62.9499 29.4843 62.8475C29.4142 62.7451 29.3761 62.6241 29.375 62.5V46.2843L38.6531 54.4093L30.45 62.9281ZM57.9719 65.1406C57.9488 65.2463 57.8978 65.3438 57.8241 65.4229C57.7505 65.5021 57.6569 65.56 57.5531 65.5906C57.4473 65.6277 57.3335 65.6357 57.2235 65.6138C57.1135 65.5918 57.0115 65.5406 56.9281 65.4656L30.5125 42.2937L69.6875 14.2187L57.9719 65.1406Z" fill="#616161"></path>
</svg>
